<svg xmlns="http://www.w3.org/2000/svg" viewBox="0 0 64 64">
  <defs>
    <linearGradient id="grad-blog" x1="0%" y1="0%" x2="100%" y2="100%">
      <stop offset="0%" stop-color="#bd34fe" />
      <stop offset="50%" stop-color="#e0321b" />
      <stop offset="100%" stop-color="#41d1ff" />
    </linearGradient>
    <filter id="glow-blog" x="-20%" y="-20%" width="140%" height="140%">
      <feGaussianBlur stdDeviation="2" result="blur" />
      <feComposite in="SourceGraphic" in2="blur" operator="over" />
    </filter>
  </defs>
  <!-- Background Glow -->
  <path d="M48 10H16C12.6863 10 10 12.6863 10 16V48C10 51.3137 12.6863 54 16 54H48C51.3137 54 54 51.3137 54 48V16C54 12.6863 51.3137 10 48 10Z" 
        fill="none" stroke="url(#grad-blog)" stroke-width="3" stroke-linecap="round" stroke-linejoin="round" filter="url(#glow-blog)" opacity="0.6"/>
  <!-- Main Shape -->
  <path d="M48 10H16C12.6863 10 10 12.6863 10 16V48C10 51.3137 12.6863 54 16 54H48C51.3137 54 54 51.3137 54 48V16C54 12.6863 51.3137 10 48 10Z" 
        fill="none" stroke="url(#grad-blog)" stroke-width="2.5" stroke-linecap="round" stroke-linejoin="round"/>
  <!-- Lines -->
  <path d="M20 22H44" stroke="url(#grad-blog)" stroke-width="2.5" stroke-linecap="round"/>
  <path d="M20 32H44" stroke="url(#grad-blog)" stroke-width="2.5" stroke-linecap="round"/>
  <path d="M20 42H34" stroke="url(#grad-blog)" stroke-width="2.5" stroke-linecap="round"/>
</svg>